<svg width="153" height="203" viewBox="0 0 153 203" fill="none" xmlns="http://www.w3.org/2000/svg">
<path d="M153 76.5C153 118.75 118.75 153 76.5 153C34.2502 153 0 118.75 0 76.5C0 34.2502 34.2502 0 76.5 0C118.75 0 153 34.2502 153 76.5ZM61.2 76.5C61.2 84.95 68.05 91.8 76.5 91.8C84.95 91.8 91.8 84.95 91.8 76.5C91.8 68.05 84.95 61.2 76.5 61.2C68.05 61.2 61.2 68.05 61.2 76.5Z" fill="#00B074" fill-opacity="0.15"/>
<path d="M76.5 2C76.5 0.89543 77.3958 -0.00273018 78.5 0.0261282C96.0727 0.485396 112.975 6.98564 126.342 18.4651C139.708 29.9446 148.687 45.6716 151.795 62.9734C151.99 64.0605 151.237 65.0818 150.145 65.2486L93.6016 73.8873C92.5097 74.0541 91.502 73.2984 91.1943 72.2375C90.37 69.396 88.7345 66.8393 86.4684 64.893C84.2022 62.9468 81.4278 61.7162 78.4944 61.3305C77.3992 61.1865 76.5 60.3046 76.5 59.2L76.5 2Z" fill="#00B074"/>
<g filter="url(#filter0_d_1_677)">
<circle cx="76.4506" cy="76.4505" r="41.1429" fill="white"/>
</g>
<path d="M59.8461 84.9852L59.8561 83.1252L66.1261 77.5052C66.6328 77.0585 66.9761 76.6318 67.1561 76.2252C67.3428 75.8185 67.4361 75.4118 67.4361 75.0052C67.4361 74.4918 67.3228 74.0318 67.0961 73.6252C66.8695 73.2118 66.5561 72.8852 66.1561 72.6452C65.7561 72.4052 65.2961 72.2852 64.7761 72.2852C64.2428 72.2852 63.7661 72.4118 63.3461 72.6652C62.9328 72.9118 62.6095 73.2418 62.3761 73.6552C62.1428 74.0685 62.0295 74.5152 62.0361 74.9952H59.8961C59.8961 74.0618 60.1061 73.2452 60.5261 72.5452C60.9528 71.8385 61.5361 71.2885 62.2761 70.8952C63.0161 70.4952 63.8628 70.2952 64.8161 70.2952C65.7228 70.2952 66.5361 70.5018 67.2561 70.9152C67.9761 71.3218 68.5428 71.8818 68.9561 72.5952C69.3761 73.3085 69.5861 74.1218 69.5861 75.0352C69.5861 75.6952 69.4995 76.2552 69.3261 76.7152C69.1528 77.1752 68.8928 77.6018 68.5461 77.9952C68.1995 78.3885 67.7661 78.8152 67.2461 79.2752L62.4061 83.5952L62.1761 82.9952H69.5861V84.9852H59.8461ZM71.5844 84.9852L71.5944 83.1252L77.8644 77.5052C78.3711 77.0585 78.7144 76.6318 78.8944 76.2252C79.0811 75.8185 79.1744 75.4118 79.1744 75.0052C79.1744 74.4918 79.0611 74.0318 78.8344 73.6252C78.6077 73.2118 78.2944 72.8852 77.8944 72.6452C77.4944 72.4052 77.0344 72.2852 76.5144 72.2852C75.9811 72.2852 75.5044 72.4118 75.0844 72.6652C74.6711 72.9118 74.3477 73.2418 74.1144 73.6552C73.8811 74.0685 73.7677 74.5152 73.7744 74.9952H71.6344C71.6344 74.0618 71.8444 73.2452 72.2644 72.5452C72.6911 71.8385 73.2744 71.2885 74.0144 70.8952C74.7544 70.4952 75.6011 70.2952 76.5544 70.2952C77.4611 70.2952 78.2744 70.5018 78.9944 70.9152C79.7144 71.3218 80.2811 71.8818 80.6944 72.5952C81.1144 73.3085 81.3244 74.1218 81.3244 75.0352C81.3244 75.6952 81.2377 76.2552 81.0644 76.7152C80.8911 77.1752 80.6311 77.6018 80.2844 77.9952C79.9377 78.3885 79.5044 78.8152 78.9844 79.2752L74.1444 83.5952L73.9144 82.9952H81.3244V84.9852H71.5844ZM85.5227 84.9952L84.1227 83.5952L97.1327 70.5952L98.5327 72.0052L85.5227 84.9952ZM95.5327 85.2952C94.8727 85.2952 94.2694 85.1352 93.7227 84.8152C93.1827 84.4885 92.7494 84.0552 92.4227 83.5152C92.096 82.9685 91.9327 82.3618 91.9327 81.6952C91.9327 81.0418 92.0994 80.4418 92.4327 79.8952C92.766 79.3485 93.206 78.9118 93.7527 78.5852C94.2994 78.2585 94.8927 78.0952 95.5327 78.0952C96.1927 78.0952 96.796 78.2585 97.3427 78.5852C97.8894 78.9052 98.3227 79.3385 98.6427 79.8852C98.9694 80.4252 99.1327 81.0285 99.1327 81.6952C99.1327 82.3618 98.9694 82.9685 98.6427 83.5152C98.3227 84.0552 97.8894 84.4885 97.3427 84.8152C96.796 85.1352 96.1927 85.2952 95.5327 85.2952ZM95.5327 83.4852C95.8594 83.4852 96.156 83.4052 96.4227 83.2452C96.696 83.0785 96.9127 82.8585 97.0727 82.5852C97.2394 82.3118 97.3227 82.0152 97.3227 81.6952C97.3227 81.3752 97.2394 81.0785 97.0727 80.8052C96.9127 80.5318 96.696 80.3152 96.4227 80.1552C96.156 79.9885 95.8594 79.9052 95.5327 79.9052C95.2127 79.9052 94.916 79.9885 94.6427 80.1552C94.376 80.3152 94.1594 80.5318 93.9927 80.8052C93.8327 81.0785 93.7527 81.3752 93.7527 81.6952C93.7527 82.0152 93.8327 82.3118 93.9927 82.5852C94.1594 82.8585 94.376 83.0785 94.6427 83.2452C94.916 83.4052 95.2127 83.4852 95.5327 83.4852ZM87.1227 77.4952C86.4627 77.4952 85.8594 77.3352 85.3127 77.0152C84.766 76.6885 84.3294 76.2552 84.0027 75.7152C83.6827 75.1685 83.5227 74.5618 83.5227 73.8952C83.5227 73.2418 83.6894 72.6418 84.0227 72.0952C84.356 71.5485 84.796 71.1118 85.3427 70.7852C85.8894 70.4585 86.4827 70.2952 87.1227 70.2952C87.7827 70.2952 88.3827 70.4585 88.9227 70.7852C89.4694 71.1052 89.906 71.5385 90.2327 72.0852C90.5594 72.6252 90.7227 73.2285 90.7227 73.8952C90.7227 74.5618 90.5594 75.1685 90.2327 75.7152C89.906 76.2552 89.4694 76.6885 88.9227 77.0152C88.3827 77.3352 87.7827 77.4952 87.1227 77.4952ZM87.1227 75.6852C87.4427 75.6852 87.7394 75.6052 88.0127 75.4452C88.286 75.2785 88.5027 75.0585 88.6627 74.7852C88.8294 74.5118 88.9127 74.2152 88.9127 73.8952C88.9127 73.5752 88.8294 73.2785 88.6627 73.0052C88.5027 72.7318 88.286 72.5152 88.0127 72.3552C87.7394 72.1885 87.4427 72.1052 87.1227 72.1052C86.8027 72.1052 86.506 72.1885 86.2327 72.3552C85.966 72.5152 85.7494 72.7318 85.5827 73.0052C85.416 73.2785 85.3327 73.5752 85.3327 73.8952C85.3327 74.2152 85.416 74.5118 85.5827 74.7852C85.7494 75.0585 85.966 75.2785 86.2327 75.4452C86.4994 75.6052 86.796 75.6852 87.1227 75.6852Z" fill="black"/>
<path d="M6.97662 197.27C5.68062 197.27 4.57662 196.988 3.66462 196.424C2.75262 195.854 2.05362 195.062 1.56762 194.048C1.08762 193.034 0.847617 191.858 0.847617 190.52C0.847617 189.182 1.08762 188.006 1.56762 186.992C2.05362 185.978 2.75262 185.189 3.66462 184.625C4.57662 184.055 5.68062 183.77 6.97662 183.77C8.47062 183.77 9.70662 184.148 10.6846 184.904C11.6686 185.66 12.3526 186.677 12.7366 187.955L10.8286 188.468C10.5766 187.562 10.1266 186.851 9.47862 186.335C8.83662 185.819 8.00262 185.561 6.97662 185.561C6.05862 185.561 5.29362 185.768 4.68162 186.182C4.06962 186.596 3.60762 187.175 3.29562 187.919C2.98962 188.663 2.83662 189.53 2.83662 190.52C2.83062 191.51 2.98062 192.377 3.28662 193.121C3.59862 193.865 4.06062 194.444 4.67262 194.858C5.29062 195.272 6.05862 195.479 6.97662 195.479C8.00262 195.479 8.83662 195.221 9.47862 194.705C10.1266 194.183 10.5766 193.472 10.8286 192.572L12.7366 193.085C12.3526 194.363 11.6686 195.38 10.6846 196.136C9.70662 196.892 8.47062 197.27 6.97662 197.27ZM18.3791 197.261C17.7071 197.261 17.1431 197.153 16.6871 196.937C16.2311 196.721 15.8591 196.439 15.5711 196.091C15.2891 195.737 15.0731 195.353 14.9231 194.939C14.7731 194.525 14.6711 194.12 14.6171 193.724C14.5631 193.328 14.5361 192.98 14.5361 192.68V187.28H16.4441V192.059C16.4441 192.437 16.4741 192.827 16.5341 193.229C16.6001 193.625 16.7201 193.994 16.8941 194.336C17.0741 194.678 17.3231 194.954 17.6411 195.164C17.9651 195.374 18.3851 195.479 18.9011 195.479C19.2371 195.479 19.5551 195.425 19.8551 195.317C20.1551 195.203 20.4161 195.023 20.6381 194.777C20.8661 194.531 21.0431 194.207 21.1691 193.805C21.3011 193.403 21.3671 192.914 21.3671 192.338L22.5371 192.779C22.5371 193.661 22.3721 194.441 22.0421 195.119C21.7121 195.791 21.2381 196.316 20.6201 196.694C20.0021 197.072 19.2551 197.261 18.3791 197.261ZM21.5921 197V194.192H21.3671V187.28H23.2661V197H21.5921ZM29.5073 197.261C28.3253 197.261 27.3623 197 26.6183 196.478C25.8743 195.956 25.4183 195.221 25.2503 194.273L27.1763 193.976C27.2963 194.48 27.5723 194.879 28.0043 195.173C28.4423 195.461 28.9853 195.605 29.6333 195.605C30.2213 195.605 30.6803 195.485 31.0103 195.245C31.3463 195.005 31.5143 194.675 31.5143 194.255C31.5143 194.009 31.4543 193.811 31.3343 193.661C31.2203 193.505 30.9773 193.358 30.6053 193.22C30.2333 193.082 29.6663 192.911 28.9043 192.707C28.0703 192.491 27.4073 192.26 26.9153 192.014C26.4293 191.762 26.0813 191.471 25.8713 191.141C25.6673 190.805 25.5653 190.4 25.5653 189.926C25.5653 189.338 25.7213 188.825 26.0333 188.387C26.3453 187.949 26.7833 187.61 27.3473 187.37C27.9173 187.13 28.5833 187.01 29.3453 187.01C30.0893 187.01 30.7523 187.127 31.3343 187.361C31.9163 187.595 32.3873 187.928 32.7473 188.36C33.1073 188.786 33.3233 189.287 33.3953 189.863L31.4693 190.214C31.4033 189.746 31.1843 189.377 30.8123 189.107C30.4403 188.837 29.9573 188.69 29.3633 188.666C28.7933 188.642 28.3313 188.738 27.9773 188.954C27.6233 189.164 27.4463 189.455 27.4463 189.827C27.4463 190.043 27.5123 190.226 27.6443 190.376C27.7823 190.526 28.0463 190.67 28.4363 190.808C28.8263 190.946 29.4023 191.111 30.1643 191.303C30.9803 191.513 31.6283 191.747 32.1083 192.005C32.5883 192.257 32.9303 192.56 33.1343 192.914C33.3443 193.262 33.4493 193.685 33.4493 194.183C33.4493 195.143 33.0983 195.896 32.3963 196.442C31.7003 196.988 30.7373 197.261 29.5073 197.261ZM41.0027 197C40.3907 197.12 39.7907 197.171 39.2027 197.153C38.6147 197.135 38.0897 197.021 37.6277 196.811C37.1657 196.601 36.8177 196.271 36.5837 195.821C36.3737 195.419 36.2597 195.011 36.2417 194.597C36.2297 194.177 36.2237 193.703 36.2237 193.175V184.58H38.1137V193.085C38.1137 193.475 38.1167 193.814 38.1227 194.102C38.1347 194.39 38.1977 194.633 38.3117 194.831C38.5277 195.203 38.8697 195.416 39.3377 195.47C39.8117 195.518 40.3667 195.497 41.0027 195.407V197ZM34.3607 188.792V187.28H41.0027V188.792H34.3607ZM46.8335 197.27C45.8615 197.27 45.0185 197.051 44.3045 196.613C43.5905 196.175 43.0385 195.572 42.6485 194.804C42.2645 194.03 42.0725 193.139 42.0725 192.131C42.0725 191.117 42.2705 190.226 42.6665 189.458C43.0625 188.684 43.6175 188.084 44.3315 187.658C45.0455 187.226 45.8795 187.01 46.8335 187.01C47.8055 187.01 48.6485 187.229 49.3625 187.667C50.0765 188.105 50.6285 188.708 51.0185 189.476C51.4085 190.244 51.6035 191.129 51.6035 192.131C51.6035 193.145 51.4055 194.039 51.0095 194.813C50.6195 195.581 50.0675 196.184 49.3535 196.622C48.6395 197.054 47.7995 197.27 46.8335 197.27ZM46.8335 195.497C47.7635 195.497 48.4565 195.185 48.9125 194.561C49.3745 193.931 49.6055 193.121 49.6055 192.131C49.6055 191.117 49.3715 190.307 48.9035 189.701C48.4415 189.089 47.7515 188.783 46.8335 188.783C46.2035 188.783 45.6845 188.927 45.2765 189.215C44.8685 189.497 44.5655 189.89 44.3675 190.394C44.1695 190.892 44.0705 191.471 44.0705 192.131C44.0705 193.151 44.3045 193.967 44.7725 194.579C45.2405 195.191 45.9275 195.497 46.8335 195.497ZM65.2273 197L65.2363 190.943C65.2363 190.241 65.0563 189.695 64.6963 189.305C64.3363 188.909 63.8623 188.711 63.2743 188.711C62.9143 188.711 62.5843 188.795 62.2843 188.963C61.9903 189.125 61.7503 189.371 61.5643 189.701C61.3843 190.025 61.2943 190.433 61.2943 190.925L60.3853 190.466C60.3733 189.782 60.5173 189.182 60.8173 188.666C61.1233 188.15 61.5373 187.751 62.0593 187.469C62.5813 187.181 63.1663 187.037 63.8143 187.037C64.8643 187.037 65.6773 187.352 66.2533 187.982C66.8293 188.612 67.1173 189.449 67.1173 190.493L67.1083 197H65.2273ZM53.5723 197V187.28H55.2463V190.088H55.4623V197H53.5723ZM59.4043 197L59.4133 190.979C59.4133 190.271 59.2333 189.716 58.8733 189.314C58.5193 188.912 58.0423 188.711 57.4423 188.711C56.8483 188.711 56.3683 188.915 56.0023 189.323C55.6423 189.731 55.4623 190.265 55.4623 190.925L54.5623 190.349C54.5623 189.713 54.7153 189.146 55.0213 188.648C55.3273 188.15 55.7413 187.757 56.2633 187.469C56.7853 187.181 57.3763 187.037 58.0363 187.037C58.7263 187.037 59.3143 187.184 59.8003 187.478C60.2863 187.766 60.6553 188.171 60.9073 188.693C61.1653 189.215 61.2943 189.821 61.2943 190.511L61.2853 197H59.4043ZM73.6423 197.27C72.6763 197.27 71.8273 197.06 71.0953 196.64C70.3693 196.214 69.8023 195.623 69.3943 194.867C68.9923 194.105 68.7913 193.223 68.7913 192.221C68.7913 191.159 68.9893 190.238 69.3853 189.458C69.7873 188.678 70.3453 188.075 71.0593 187.649C71.7733 187.223 72.6043 187.01 73.5523 187.01C74.5423 187.01 75.3853 187.241 76.0813 187.703C76.7773 188.159 77.2963 188.81 77.6383 189.656C77.9863 190.502 78.1243 191.507 78.0523 192.671H76.1713V191.987C76.1593 190.859 75.9433 190.025 75.5233 189.485C75.1093 188.945 74.4763 188.675 73.6243 188.675C72.6823 188.675 71.9743 188.972 71.5003 189.566C71.0263 190.16 70.7893 191.018 70.7893 192.14C70.7893 193.208 71.0263 194.036 71.5003 194.624C71.9743 195.206 72.6583 195.497 73.5523 195.497C74.1403 195.497 74.6473 195.365 75.0733 195.101C75.5053 194.831 75.8413 194.447 76.0813 193.949L77.9263 194.534C77.5483 195.404 76.9753 196.079 76.2073 196.559C75.4393 197.033 74.5843 197.27 73.6423 197.27ZM70.1773 192.671V191.204H77.1163V192.671H70.1773ZM80.0715 197V187.28H81.7455V189.638L81.5115 189.332C81.6315 189.02 81.7875 188.735 81.9795 188.477C82.1715 188.213 82.3935 187.997 82.6455 187.829C82.8915 187.649 83.1645 187.511 83.4645 187.415C83.7705 187.313 84.0825 187.253 84.4005 187.235C84.7185 187.211 85.0245 187.226 85.3185 187.28V189.044C85.0005 188.96 84.6465 188.936 84.2565 188.972C83.8725 189.008 83.5185 189.131 83.1945 189.341C82.8885 189.539 82.6455 189.779 82.4655 190.061C82.2915 190.343 82.1655 190.658 82.0875 191.006C82.0095 191.348 81.9705 191.711 81.9705 192.095V197H80.0715ZM95.937 197.27C95.067 197.27 94.266 197.12 93.534 196.82C92.802 196.514 92.166 196.07 91.626 195.488C91.086 194.906 90.666 194.198 90.366 193.364C90.066 192.53 89.916 191.582 89.916 190.52C89.916 189.122 90.171 187.922 90.681 186.92C91.191 185.912 91.899 185.138 92.805 184.598C93.711 184.052 94.755 183.779 95.937 183.779C97.461 183.779 98.676 184.133 99.582 184.841C100.494 185.549 101.115 186.527 101.445 187.775L99.537 188.117C99.273 187.343 98.847 186.725 98.259 186.263C97.671 185.801 96.933 185.567 96.045 185.561C95.127 185.555 94.362 185.759 93.75 186.173C93.144 186.587 92.688 187.169 92.382 187.919C92.076 188.663 91.92 189.53 91.914 190.52C91.908 191.51 92.058 192.377 92.364 193.121C92.67 193.859 93.129 194.435 93.741 194.849C94.359 195.263 95.127 195.473 96.045 195.479C96.783 195.491 97.416 195.356 97.944 195.074C98.478 194.786 98.901 194.366 99.213 193.814C99.525 193.262 99.726 192.584 99.816 191.78H97.296V190.268H101.814C101.826 190.376 101.835 190.52 101.841 190.7C101.847 190.874 101.85 190.985 101.85 191.033C101.85 192.233 101.619 193.304 101.157 194.246C100.695 195.188 100.023 195.929 99.141 196.469C98.259 197.003 97.191 197.27 95.937 197.27ZM103.644 197V187.28H105.318V189.638L105.084 189.332C105.204 189.02 105.36 188.735 105.552 188.477C105.744 188.213 105.966 187.997 106.218 187.829C106.464 187.649 106.737 187.511 107.037 187.415C107.343 187.313 107.655 187.253 107.973 187.235C108.291 187.211 108.597 187.226 108.891 187.28V189.044C108.573 188.96 108.219 188.936 107.829 188.972C107.445 189.008 107.091 189.131 106.767 189.341C106.461 189.539 106.218 189.779 106.038 190.061C105.864 190.343 105.738 190.658 105.66 191.006C105.582 191.348 105.543 191.711 105.543 192.095V197H103.644ZM114.65 197.27C113.678 197.27 112.835 197.051 112.121 196.613C111.407 196.175 110.855 195.572 110.465 194.804C110.081 194.03 109.889 193.139 109.889 192.131C109.889 191.117 110.087 190.226 110.483 189.458C110.879 188.684 111.434 188.084 112.148 187.658C112.862 187.226 113.696 187.01 114.65 187.01C115.622 187.01 116.465 187.229 117.179 187.667C117.893 188.105 118.445 188.708 118.835 189.476C119.225 190.244 119.42 191.129 119.42 192.131C119.42 193.145 119.222 194.039 118.826 194.813C118.436 195.581 117.884 196.184 117.17 196.622C116.456 197.054 115.616 197.27 114.65 197.27ZM114.65 195.497C115.58 195.497 116.273 195.185 116.729 194.561C117.191 193.931 117.422 193.121 117.422 192.131C117.422 191.117 117.188 190.307 116.72 189.701C116.258 189.089 115.568 188.783 114.65 188.783C114.02 188.783 113.501 188.927 113.093 189.215C112.685 189.497 112.382 189.89 112.184 190.394C111.986 190.892 111.887 191.471 111.887 192.131C111.887 193.151 112.121 193.967 112.589 194.579C113.057 195.191 113.744 195.497 114.65 195.497ZM123.116 197L120.146 187.271L122.009 187.28L124.043 193.949L126.095 187.28H127.715L129.767 193.949L131.801 187.28H133.655L130.685 197H129.173L126.905 189.962L124.628 197H123.116ZM140.829 197C140.217 197.12 139.617 197.171 139.029 197.153C138.441 197.135 137.916 197.021 137.454 196.811C136.992 196.601 136.644 196.271 136.41 195.821C136.2 195.419 136.086 195.011 136.068 194.597C136.056 194.177 136.05 193.703 136.05 193.175V184.58H137.94V193.085C137.94 193.475 137.943 193.814 137.949 194.102C137.961 194.39 138.024 194.633 138.138 194.831C138.354 195.203 138.696 195.416 139.164 195.47C139.638 195.518 140.193 195.497 140.829 195.407V197ZM134.187 188.792V187.28H140.829V188.792H134.187ZM149.7 197V192.221C149.7 191.843 149.667 191.456 149.601 191.06C149.541 190.658 149.421 190.286 149.241 189.944C149.067 189.602 148.818 189.326 148.494 189.116C148.176 188.906 147.759 188.801 147.243 188.801C146.907 188.801 146.589 188.858 146.289 188.972C145.989 189.08 145.725 189.257 145.497 189.503C145.275 189.749 145.098 190.073 144.966 190.475C144.84 190.877 144.777 191.366 144.777 191.942L143.607 191.501C143.607 190.619 143.772 189.842 144.102 189.17C144.432 188.492 144.906 187.964 145.524 187.586C146.142 187.208 146.889 187.019 147.765 187.019C148.437 187.019 149.001 187.127 149.457 187.343C149.913 187.559 150.282 187.844 150.564 188.198C150.852 188.546 151.071 188.927 151.221 189.341C151.371 189.755 151.473 190.16 151.527 190.556C151.581 190.952 151.608 191.3 151.608 191.6V197H149.7ZM142.869 197V184.04H144.552V191.033H144.777V197H142.869Z" fill="#464255"/>
<defs>
<filter id="filter0_d_1_677" x="0.307709" y="17.3077" width="152.286" height="152.286" filterUnits="userSpaceOnUse" color-interpolation-filters="sRGB">
<feFlood flood-opacity="0" result="BackgroundImageFix"/>
<feColorMatrix in="SourceAlpha" type="matrix" values="0 0 0 0 0 0 0 0 0 0 0 0 0 0 0 0 0 0 127 0" result="hardAlpha"/>
<feOffset dy="17"/>
<feGaussianBlur stdDeviation="17.5"/>
<feColorMatrix type="matrix" values="0 0 0 0 0 0 0 0 0 0 0 0 0 0 0 0 0 0 0.12 0"/>
<feBlend mode="normal" in2="BackgroundImageFix" result="effect1_dropShadow_1_677"/>
<feBlend mode="normal" in="SourceGraphic" in2="effect1_dropShadow_1_677" result="shape"/>
</filter>
</defs>
</svg>
