<svg width="118" height="58" viewBox="0 0 118 58" fill="none" xmlns="http://www.w3.org/2000/svg">
<rect y="10" width="48" height="48" rx="15" fill="#2D9CDB" fill-opacity="0.15"/>
<rect x="61" y="9" width="48" height="48" rx="15" fill="#FF5B5B" fill-opacity="0.15"/>
<path d="M14.6667 43.3333H21.6667C21.6667 43.9522 21.9125 44.5457 22.3501 44.9832C22.7877 45.4208 23.3812 45.6667 24 45.6667C24.6188 45.6667 25.2123 45.4208 25.6499 44.9832C26.0875 44.5457 26.3333 43.9522 26.3333 43.3333H33.3333C33.6428 43.3333 33.9395 43.2104 34.1583 42.9916C34.3771 42.7728 34.5 42.4761 34.5 42.1667C34.5 41.8572 34.3771 41.5605 34.1583 41.3417C33.9395 41.1229 33.6428 41 33.3333 41V32.8333C33.3333 30.358 32.35 27.984 30.5997 26.2337C28.8493 24.4833 26.4754 23.5 24 23.5C21.5246 23.5 19.1507 24.4833 17.4003 26.2337C15.65 27.984 14.6667 30.358 14.6667 32.8333V41C14.3572 41 14.0605 41.1229 13.8417 41.3417C13.6229 41.5605 13.5 41.8572 13.5 42.1667C13.5 42.4761 13.6229 42.7728 13.8417 42.9916C14.0605 43.2104 14.3572 43.3333 14.6667 43.3333ZM17 32.8333C17 30.9768 17.7375 29.1963 19.0503 27.8836C20.363 26.5708 22.1435 25.8333 24 25.8333C25.8565 25.8333 27.637 26.5708 28.9497 27.8836C30.2625 29.1963 31 30.9768 31 32.8333V41H17V32.8333Z" fill="#2D9CDB"/>
<path d="M85.0001 28.625C84.1348 28.625 83.2889 28.8816 82.5694 29.3623C81.85 29.8431 81.2892 30.5263 80.9581 31.3258C80.627 32.1252 80.5403 33.0048 80.7091 33.8535C80.8779 34.7022 81.2946 35.4817 81.9065 36.0936C82.5183 36.7054 83.2979 37.1221 84.1465 37.2909C84.9952 37.4597 85.8749 37.3731 86.6743 37.042C87.4737 36.7108 88.157 36.1501 88.6377 35.4306C89.1185 34.7111 89.375 33.8653 89.375 33C89.3737 31.8401 88.9123 30.7281 88.0921 29.9079C87.272 29.0877 86.16 28.6264 85.0001 28.625ZM85.0001 35.625C84.4809 35.625 83.9734 35.471 83.5417 35.1826C83.11 34.8942 82.7736 34.4842 82.5749 34.0045C82.3762 33.5249 82.3242 32.9971 82.4255 32.4879C82.5268 31.9787 82.7768 31.511 83.1439 31.1438C83.511 30.7767 83.9787 30.5267 84.4879 30.4254C84.9971 30.3241 85.5249 30.3761 86.0046 30.5748C86.4843 30.7735 86.8942 31.1099 87.1827 31.5416C87.4711 31.9733 87.625 32.4808 87.625 33C87.6243 33.696 87.3475 34.3632 86.8554 34.8553C86.3632 35.3474 85.696 35.6242 85.0001 35.625Z" fill="#FF5B5B"/>
<path d="M76.4893 27.5598C76.0591 27.3982 75.5828 27.4102 75.1613 27.5935C74.7397 27.7767 74.406 28.1167 74.2307 28.5416C74.0554 28.9664 74.0522 29.4428 74.2219 29.87C74.3915 30.2972 74.7207 30.6416 75.1397 30.8304C75.566 31.0107 75.9297 31.3126 76.1855 31.6984C76.4412 32.0843 76.5776 32.5369 76.5776 32.9997C76.5776 33.4626 76.4412 33.9152 76.1855 34.301C75.9297 34.6869 75.566 34.9888 75.1397 35.1691C74.7206 35.3579 74.3913 35.7024 74.2216 36.1296C74.052 36.5569 74.0552 37.0334 74.2306 37.4583C74.406 37.8833 74.7399 38.2233 75.1615 38.4064C75.5832 38.5896 76.0595 38.6015 76.4898 38.4397C76.9192 38.2648 77.3906 38.2205 77.8451 38.3124C78.2995 38.4042 78.7167 38.6281 79.0445 38.956C79.3722 39.2839 79.5959 39.7013 79.6875 40.1557C79.7792 40.6102 79.7347 41.0816 79.5596 41.5109C79.3927 41.9423 79.4031 42.4222 79.5884 42.846C79.7738 43.2698 80.1191 43.6032 80.5491 43.7736C80.7645 43.8627 80.9953 43.9086 81.2284 43.9086C81.5689 43.911 81.9026 43.8128 82.1875 43.6263C82.4724 43.4399 82.696 43.1735 82.8302 42.8605C83.0105 42.4342 83.3124 42.0705 83.6982 41.8148C84.084 41.559 84.5366 41.4227 84.9995 41.4227C85.4624 41.4227 85.915 41.559 86.3008 41.8148C86.6866 42.0705 86.9885 42.4342 87.1689 42.8605C87.3577 43.2797 87.7022 43.6089 88.1294 43.7786C88.5567 43.9482 89.0332 43.945 89.4581 43.7696C89.883 43.5942 90.223 43.2603 90.4062 42.8387C90.5893 42.417 90.6013 41.9407 90.4394 41.5104C90.2646 41.081 90.2203 40.6096 90.3121 40.1552C90.404 39.7007 90.6279 39.2835 90.9558 38.9558C91.2837 38.628 91.701 38.4043 92.1555 38.3127C92.61 38.221 93.0814 38.2655 93.5107 38.4406C93.9394 38.6071 94.4164 38.5981 94.8386 38.4158C95.2608 38.2334 95.5942 37.8923 95.767 37.466L94.9646 37.1174L94.1683 36.8192C93.4205 36.5137 92.599 36.4361 91.8072 36.5962C91.0154 36.7563 90.2886 37.147 89.7182 37.719C89.1482 38.2936 88.7566 39.0207 88.5906 39.8128C88.4245 40.605 88.4912 41.4282 88.7824 42.1833C88.4703 41.438 87.9446 40.8019 87.2715 40.355C86.5984 39.9082 85.808 39.6706 85.0001 39.6723C84.1904 39.6748 83.3988 39.9119 82.721 40.355C82.0433 40.798 81.5085 41.428 81.1813 42.1686C81.4866 41.4208 81.5641 40.5993 81.404 39.8076C81.244 39.0158 80.8534 38.289 80.2816 37.7185C79.7069 37.1486 78.9798 36.757 78.1877 36.591C77.3956 36.425 76.5724 36.4916 75.8173 36.7828C76.5625 36.4705 77.1986 35.9447 77.6453 35.2715C78.0921 34.5983 78.3296 33.8079 78.3278 33C78.3253 32.1903 78.0881 31.3986 77.6451 30.7209C77.202 30.0432 76.5721 29.5084 75.8314 29.1812C76.5792 29.4867 77.4007 29.5643 78.1925 29.4042C78.9843 29.2441 79.7111 28.8535 80.2816 28.2814C80.8515 27.7069 81.2431 26.9797 81.4092 26.1876C81.5752 25.3955 81.5086 24.5723 81.2173 23.8172C81.5295 24.5624 82.0554 25.1984 82.7285 25.6452C83.4017 26.092 84.1921 26.3294 85.0001 26.3276C85.8098 26.3251 86.6014 26.088 87.2791 25.645C87.9569 25.2019 88.4917 24.5719 88.8188 23.8313C88.5135 24.5791 88.436 25.4006 88.5961 26.1923C88.7562 26.9841 89.1467 27.7109 89.7186 28.2814C90.2934 28.8511 91.0205 29.2425 91.8126 29.4085C92.6046 29.5745 93.4277 29.5081 94.1829 29.2172C93.4413 29.5287 92.8078 30.0517 92.3614 30.7208C91.9149 31.3899 91.6753 32.1757 91.6724 32.98C91.6695 33.7844 91.9034 34.5719 92.345 35.2442C92.7865 35.9165 93.4162 36.4441 94.1556 36.761C94.158 36.7682 94.158 36.776 94.1556 36.7832L94.9643 37.1169L95.7684 37.4617L95.7731 37.4506C95.9517 37.0268 95.9561 36.5497 95.7852 36.1228C95.6144 35.6959 95.2821 35.3535 94.8605 35.17C94.4342 34.9896 94.0704 34.6877 93.8147 34.3019C93.559 33.9161 93.4226 33.4635 93.4226 33.0006C93.4226 32.5377 93.559 32.0851 93.8147 31.6993C94.0704 31.3135 94.4342 31.0116 94.8605 30.8313C95.2796 30.6425 95.6088 30.298 95.7785 29.8707C95.9482 29.4435 95.945 28.967 95.7696 28.542C95.5941 28.1171 95.2603 27.7771 94.8386 27.5939C94.417 27.4108 93.9406 27.3989 93.5103 27.5607C93.081 27.7356 92.6095 27.7798 92.1551 27.688C91.7007 27.5961 91.2835 27.3722 90.9557 27.0443C90.628 26.7164 90.4043 26.2991 90.3126 25.8446C90.221 25.3901 90.2655 24.9187 90.4406 24.4894C90.6023 24.0592 90.5904 23.5829 90.4072 23.1613C90.224 22.7397 89.884 22.4059 89.4591 22.2305C89.0342 22.0551 88.5578 22.0519 88.1305 22.2216C87.7033 22.3913 87.3589 22.7205 87.1701 23.1396C86.9898 23.5659 86.6879 23.9296 86.302 24.1853C85.9162 24.4411 85.4636 24.5774 85.0007 24.5774C84.5379 24.5774 84.0853 24.4411 83.6994 24.1853C83.3136 23.9296 83.0117 23.5659 82.8314 23.1396C82.6426 22.7204 82.2981 22.3912 81.8708 22.2215C81.4436 22.0519 80.9671 22.0551 80.5422 22.2305C80.1172 22.4059 79.7772 22.7398 79.5941 23.1614C79.4109 23.5831 79.399 24.0594 79.5608 24.4897C79.7357 24.9191 79.78 25.3905 79.6881 25.8449C79.5963 26.2994 79.3724 26.7166 79.0444 27.0443C78.7165 27.3721 78.2992 27.5958 77.8447 27.6874C77.3903 27.7791 76.9189 27.7345 76.4896 27.5595L76.4893 27.5598Z" fill="#FF5B5B"/>
<rect x="33.5" y="2.5" width="22" height="22" rx="11" fill="#2D9CDB" stroke="#F3F2F7" stroke-width="3"/>
<path d="M41.0916 17.196C41.0676 17.236 41.0756 17.256 41.1156 17.256H44.8836C44.9636 17.256 45.0036 17.296 45.0036 17.376V17.88C45.0036 17.96 44.9636 18 44.8836 18H40.0956C40.0156 18 39.9756 17.96 39.9756 17.88V17.376C39.9756 17.32 39.9956 17.272 40.0356 17.232C40.3076 16.912 40.9196 16.16 41.8716 14.976L42.7596 13.872C43.5116 12.92 43.8876 12.18 43.8876 11.652C43.8876 11.228 43.7436 10.888 43.4556 10.632C43.1676 10.376 42.7916 10.248 42.3276 10.248C41.8716 10.248 41.5036 10.38 41.2236 10.644C40.9436 10.9 40.8076 11.24 40.8156 11.664V12.036C40.8156 12.116 40.7756 12.156 40.6956 12.156H40.0716C39.9916 12.156 39.9516 12.116 39.9516 12.036V11.556C39.9676 10.94 40.1956 10.444 40.6356 10.068C41.0836 9.692 41.6476 9.504 42.3276 9.504C42.8076 9.504 43.2316 9.596 43.5996 9.78C43.9676 9.964 44.2516 10.22 44.4516 10.548C44.6516 10.868 44.7516 11.232 44.7516 11.64C44.7516 12.32 44.3756 13.14 43.6236 14.1C43.2316 14.604 42.4756 15.532 41.3556 16.884L41.0916 17.196ZM47.6971 9.636C47.7451 9.612 47.7971 9.6 47.8531 9.6H48.5011C48.5811 9.6 48.6211 9.64 48.6211 9.72V17.88C48.6211 17.96 48.5811 18 48.5011 18H47.8891C47.8091 18 47.7691 17.96 47.7691 17.88V10.572C47.7691 10.556 47.7611 10.544 47.7451 10.536C47.7371 10.528 47.7251 10.528 47.7091 10.536L46.4371 11.052L46.3891 11.064C46.3411 11.064 46.3091 11.032 46.2931 10.968L46.2331 10.512V10.488C46.2331 10.448 46.2611 10.408 46.3171 10.368L47.6971 9.636Z" fill="white"/>
<rect x="94.5" y="1.5" width="22" height="22" rx="11" fill="#FF5B5B" stroke="#F3F2F7" stroke-width="3"/>
<path d="M102.433 8.636C102.481 8.612 102.533 8.6 102.589 8.6H103.237C103.317 8.6 103.357 8.64 103.357 8.72V16.88C103.357 16.96 103.317 17 103.237 17H102.625C102.545 17 102.505 16.96 102.505 16.88V9.572C102.505 9.556 102.497 9.544 102.481 9.536C102.473 9.528 102.461 9.528 102.445 9.536L101.173 10.052L101.125 10.064C101.077 10.064 101.045 10.032 101.029 9.968L100.969 9.512V9.488C100.969 9.448 100.997 9.408 101.053 9.368L102.433 8.636ZM109.797 10.076C109.893 10.396 109.941 10.772 109.941 11.204V14.948C109.941 15.604 109.725 16.128 109.293 16.52C108.861 16.904 108.297 17.096 107.601 17.096C106.929 17.096 106.381 16.908 105.957 16.532C105.541 16.148 105.333 15.652 105.333 15.044V14.876C105.333 14.796 105.373 14.756 105.453 14.756H106.065C106.145 14.756 106.185 14.796 106.185 14.876V14.972C106.185 15.38 106.317 15.712 106.581 15.968C106.845 16.224 107.185 16.352 107.601 16.352C108.033 16.352 108.389 16.22 108.669 15.956C108.949 15.684 109.089 15.328 109.089 14.888V13.136C109.089 13.12 109.081 13.112 109.065 13.112C109.049 13.104 109.037 13.108 109.029 13.124C108.677 13.596 108.149 13.832 107.445 13.832C106.941 13.832 106.517 13.72 106.173 13.496C105.837 13.272 105.581 12.956 105.405 12.548C105.237 12.212 105.153 11.756 105.153 11.18C105.153 10.692 105.213 10.292 105.333 9.98C105.501 9.516 105.769 9.156 106.137 8.9C106.513 8.644 106.973 8.516 107.517 8.516C108.093 8.516 108.577 8.656 108.969 8.936C109.369 9.208 109.645 9.588 109.797 10.076ZM107.553 13.088C107.905 13.088 108.201 13.004 108.441 12.836C108.689 12.66 108.861 12.42 108.957 12.116C109.045 11.884 109.089 11.56 109.089 11.144C109.089 10.8 109.053 10.508 108.981 10.268C108.885 9.964 108.713 9.72 108.465 9.536C108.217 9.352 107.913 9.26 107.553 9.26C107.209 9.26 106.913 9.348 106.665 9.524C106.417 9.692 106.241 9.94 106.137 10.268C106.049 10.492 106.005 10.796 106.005 11.18C106.005 11.588 106.057 11.908 106.161 12.14C106.257 12.428 106.425 12.66 106.665 12.836C106.905 13.004 107.201 13.088 107.553 13.088Z" fill="white"/>
</svg>
