<svg width="17" height="17" viewBox="0 0 17 17" fill="none" xmlns="http://www.w3.org/2000/svg">
<rect x="16.908" y="17" width="16" height="16.1308" rx="8" transform="rotate(-180 16.908 17)" fill="#FF5B5B" fill-opacity="0.15"/>
<g clip-path="url(#clip0_1_620)">
<path d="M6.92821 9.74445L8.57527 11.405C8.66351 11.4939 8.78319 11.5439 8.90797 11.5439C9.03275 11.5439 9.15243 11.4939 9.24068 11.405L10.8877 9.74445C10.9735 9.65497 11.0209 9.53513 11.0198 9.41074C11.0187 9.28634 10.9693 9.16735 10.882 9.07938C10.7948 8.99142 10.6767 8.94152 10.5533 8.94044C10.43 8.93936 10.3111 8.98718 10.2223 9.0736L9.37856 9.92426L9.37856 6.79964C9.37856 6.67381 9.32898 6.55313 9.24073 6.46416C9.15248 6.37519 9.03278 6.3252 8.90797 6.3252C8.78316 6.3252 8.66347 6.37519 8.57522 6.46416C8.48696 6.55313 8.43738 6.67381 8.43738 6.79964L8.43738 9.92426L7.59362 9.0736C7.50486 8.98718 7.38599 8.93936 7.26261 8.94044C7.13922 8.94152 7.02119 8.99142 6.93394 9.07938C6.84669 9.16735 6.7972 9.28634 6.79613 9.41073C6.79505 9.53513 6.84249 9.65497 6.92821 9.74445Z" fill="#FF5B5B"/>
</g>
<defs>
<clipPath id="clip0_1_620">
<rect width="5.64706" height="5.69322" fill="white" transform="translate(11.7316 11.7812) rotate(-180)"/>
</clipPath>
</defs>
</svg>
