<svg width="153" height="203" viewBox="0 0 153 203" fill="none" xmlns="http://www.w3.org/2000/svg">
<path d="M153 76.5C153 118.75 118.75 153 76.5 153C34.2502 153 0 118.75 0 76.5C0 34.2502 34.2502 0 76.5 0C118.75 0 153 34.2502 153 76.5ZM61.2 76.5C61.2 84.95 68.05 91.8 76.5 91.8C84.95 91.8 91.8 84.95 91.8 76.5C91.8 68.05 84.95 61.2 76.5 61.2C68.05 61.2 61.2 68.05 61.2 76.5Z" fill="#2D9CDB" fill-opacity="0.15"/>
<path d="M76.5 1.99999C76.5 0.895418 77.3957 -0.00274352 78.4999 0.0261288C90.3907 0.33705 102.055 3.41714 112.562 9.03301C123.657 14.9634 133.118 23.5386 140.107 33.9989C147.097 44.4592 151.399 56.4818 152.632 69.0017C153.865 81.5216 151.991 94.1524 147.177 105.775C142.362 117.398 134.756 127.654 125.031 135.635C115.306 143.616 103.763 149.076 91.4244 151.53C79.0857 153.984 66.332 153.358 54.2932 149.706C42.893 146.248 32.4669 140.178 23.839 131.989C23.0378 131.229 23.0395 129.961 23.8206 129.179L64.2671 88.7329C65.0481 87.9519 66.3076 87.9641 67.1838 88.6366C68.6404 89.7548 70.291 90.605 72.0586 91.1412C74.4664 91.8716 77.0171 91.9969 79.4849 91.506C81.9526 91.0151 84.2612 89.9232 86.2062 88.327C88.1512 86.7309 89.6725 84.6796 90.6354 82.355C91.5982 80.0305 91.9729 77.5043 91.7263 75.0003C91.4797 72.4963 90.6194 70.0918 89.2215 67.9998C87.8236 65.9077 85.9314 64.1927 83.7124 63.0066C82.0833 62.1358 80.315 61.5699 78.4943 61.3305C77.3992 61.1865 76.5 60.3046 76.5 59.2V1.99999Z" fill="#2D9CDB"/>
<g filter="url(#filter0_d_1_683)">
<circle cx="76.4506" cy="76.4505" r="41.1429" fill="white"/>
</g>
<path d="M65.1961 85.2952C64.2628 85.2952 63.4228 85.0752 62.6761 84.6352C61.9295 84.1885 61.3361 83.5785 60.8961 82.8052C60.4628 82.0318 60.2461 81.1518 60.2461 80.1652V75.5752C60.2461 74.5285 60.4628 73.6085 60.8961 72.8152C61.3361 72.0218 61.9428 71.4052 62.7161 70.9652C63.4961 70.5252 64.3928 70.3052 65.4061 70.3052C66.1661 70.3052 66.8795 70.4485 67.5461 70.7352C68.2128 71.0218 68.7895 71.4485 69.2761 72.0152L67.7461 73.4452C67.4728 73.0918 67.1295 72.8118 66.7161 72.6052C66.3095 72.3918 65.8728 72.2852 65.4061 72.2852C64.8061 72.2852 64.2795 72.4285 63.8261 72.7152C63.3728 72.9952 63.0161 73.3652 62.7561 73.8252C62.5028 74.2852 62.3761 74.7785 62.3761 75.3052V77.9452L61.9661 77.4852C62.3795 76.9452 62.8928 76.5185 63.5061 76.2052C64.1195 75.8918 64.7761 75.7352 65.4761 75.7352C66.3695 75.7352 67.1661 75.9452 67.8661 76.3652C68.5728 76.7785 69.1261 77.3418 69.5261 78.0552C69.9328 78.7685 70.1361 79.5718 70.1361 80.4652C70.1361 81.3652 69.9095 82.1818 69.4561 82.9152C69.0095 83.6418 68.4095 84.2218 67.6561 84.6552C66.9095 85.0818 66.0895 85.2952 65.1961 85.2952ZM65.1961 83.2852C65.7161 83.2852 66.1895 83.1585 66.6161 82.9052C67.0428 82.6518 67.3828 82.3118 67.6361 81.8852C67.8895 81.4585 68.0161 80.9852 68.0161 80.4652C68.0161 79.9452 67.8895 79.4718 67.6361 79.0452C67.3895 78.6185 67.0528 78.2785 66.6261 78.0252C66.1995 77.7718 65.7261 77.6452 65.2061 77.6452C64.6861 77.6452 64.2095 77.7718 63.7761 78.0252C63.3495 78.2785 63.0095 78.6185 62.7561 79.0452C62.5028 79.4718 62.3761 79.9452 62.3761 80.4652C62.3761 80.9785 62.5028 81.4485 62.7561 81.8752C63.0095 82.3018 63.3495 82.6452 63.7761 82.9052C64.2028 83.1585 64.6761 83.2852 65.1961 83.2852ZM72.268 84.9852L72.278 83.1252L78.548 77.5052C79.0547 77.0585 79.398 76.6318 79.578 76.2252C79.7647 75.8185 79.858 75.4118 79.858 75.0052C79.858 74.4918 79.7447 74.0318 79.518 73.6252C79.2913 73.2118 78.978 72.8852 78.578 72.6452C78.178 72.4052 77.718 72.2852 77.198 72.2852C76.6647 72.2852 76.188 72.4118 75.768 72.6652C75.3547 72.9118 75.0313 73.2418 74.798 73.6552C74.5647 74.0685 74.4513 74.5152 74.458 74.9952H72.318C72.318 74.0618 72.528 73.2452 72.948 72.5452C73.3747 71.8385 73.958 71.2885 74.698 70.8952C75.438 70.4952 76.2847 70.2952 77.238 70.2952C78.1447 70.2952 78.958 70.5018 79.678 70.9152C80.398 71.3218 80.9647 71.8818 81.378 72.5952C81.798 73.3085 82.008 74.1218 82.008 75.0352C82.008 75.6952 81.9213 76.2552 81.748 76.7152C81.5747 77.1752 81.3147 77.6018 80.968 77.9952C80.6213 78.3885 80.188 78.8152 79.668 79.2752L74.828 83.5952L74.598 82.9952H82.008V84.9852H72.268ZM86.2063 84.9952L84.8063 83.5952L97.8163 70.5952L99.2163 72.0052L86.2063 84.9952ZM96.2163 85.2952C95.5563 85.2952 94.953 85.1352 94.4063 84.8152C93.8663 84.4885 93.433 84.0552 93.1063 83.5152C92.7796 82.9685 92.6163 82.3618 92.6163 81.6952C92.6163 81.0418 92.783 80.4418 93.1163 79.8952C93.4496 79.3485 93.8896 78.9118 94.4363 78.5852C94.983 78.2585 95.5763 78.0952 96.2163 78.0952C96.8763 78.0952 97.4796 78.2585 98.0263 78.5852C98.573 78.9052 99.0063 79.3385 99.3263 79.8852C99.653 80.4252 99.8163 81.0285 99.8163 81.6952C99.8163 82.3618 99.653 82.9685 99.3263 83.5152C99.0063 84.0552 98.573 84.4885 98.0263 84.8152C97.4796 85.1352 96.8763 85.2952 96.2163 85.2952ZM96.2163 83.4852C96.543 83.4852 96.8396 83.4052 97.1063 83.2452C97.3796 83.0785 97.5963 82.8585 97.7563 82.5852C97.923 82.3118 98.0063 82.0152 98.0063 81.6952C98.0063 81.3752 97.923 81.0785 97.7563 80.8052C97.5963 80.5318 97.3796 80.3152 97.1063 80.1552C96.8396 79.9885 96.543 79.9052 96.2163 79.9052C95.8963 79.9052 95.5996 79.9885 95.3263 80.1552C95.0596 80.3152 94.843 80.5318 94.6763 80.8052C94.5163 81.0785 94.4363 81.3752 94.4363 81.6952C94.4363 82.0152 94.5163 82.3118 94.6763 82.5852C94.843 82.8585 95.0596 83.0785 95.3263 83.2452C95.5996 83.4052 95.8963 83.4852 96.2163 83.4852ZM87.8063 77.4952C87.1463 77.4952 86.543 77.3352 85.9963 77.0152C85.4496 76.6885 85.013 76.2552 84.6863 75.7152C84.3663 75.1685 84.2063 74.5618 84.2063 73.8952C84.2063 73.2418 84.373 72.6418 84.7063 72.0952C85.0396 71.5485 85.4796 71.1118 86.0263 70.7852C86.573 70.4585 87.1663 70.2952 87.8063 70.2952C88.4663 70.2952 89.0663 70.4585 89.6063 70.7852C90.153 71.1052 90.5896 71.5385 90.9163 72.0852C91.243 72.6252 91.4063 73.2285 91.4063 73.8952C91.4063 74.5618 91.243 75.1685 90.9163 75.7152C90.5896 76.2552 90.153 76.6885 89.6063 77.0152C89.0663 77.3352 88.4663 77.4952 87.8063 77.4952ZM87.8063 75.6852C88.1263 75.6852 88.423 75.6052 88.6963 75.4452C88.9696 75.2785 89.1863 75.0585 89.3463 74.7852C89.513 74.5118 89.5963 74.2152 89.5963 73.8952C89.5963 73.5752 89.513 73.2785 89.3463 73.0052C89.1863 72.7318 88.9696 72.5152 88.6963 72.3552C88.423 72.1885 88.1263 72.1052 87.8063 72.1052C87.4863 72.1052 87.1896 72.1885 86.9163 72.3552C86.6496 72.5152 86.433 72.7318 86.2663 73.0052C86.0996 73.2785 86.0163 73.5752 86.0163 73.8952C86.0163 74.2152 86.0996 74.5118 86.2663 74.7852C86.433 75.0585 86.6496 75.2785 86.9163 75.4452C87.183 75.6052 87.4796 75.6852 87.8063 75.6852Z" fill="black"/>
<path d="M19.7849 197V185.813H15.4739V184.04H25.9769V185.813H21.6659V197H19.7849ZM30.1968 197.27C29.2248 197.27 28.3818 197.051 27.6678 196.613C26.9538 196.175 26.4018 195.572 26.0118 194.804C25.6278 194.03 25.4358 193.139 25.4358 192.131C25.4358 191.117 25.6338 190.226 26.0298 189.458C26.4258 188.684 26.9808 188.084 27.6948 187.658C28.4088 187.226 29.2428 187.01 30.1968 187.01C31.1688 187.01 32.0118 187.229 32.7258 187.667C33.4398 188.105 33.9918 188.708 34.3818 189.476C34.7718 190.244 34.9668 191.129 34.9668 192.131C34.9668 193.145 34.7688 194.039 34.3728 194.813C33.9828 195.581 33.4308 196.184 32.7168 196.622C32.0028 197.054 31.1628 197.27 30.1968 197.27ZM30.1968 195.497C31.1268 195.497 31.8198 195.185 32.2758 194.561C32.7378 193.931 32.9688 193.121 32.9688 192.131C32.9688 191.117 32.7348 190.307 32.2668 189.701C31.8048 189.089 31.1148 188.783 30.1968 188.783C29.5668 188.783 29.0478 188.927 28.6398 189.215C28.2318 189.497 27.9288 189.89 27.7308 190.394C27.5328 190.892 27.4338 191.471 27.4338 192.131C27.4338 193.151 27.6678 193.967 28.1358 194.579C28.6038 195.191 29.2908 195.497 30.1968 195.497ZM42.5066 197C41.8946 197.12 41.2946 197.171 40.7066 197.153C40.1186 197.135 39.5936 197.021 39.1316 196.811C38.6696 196.601 38.3216 196.271 38.0876 195.821C37.8776 195.419 37.7636 195.011 37.7456 194.597C37.7336 194.177 37.7276 193.703 37.7276 193.175V184.58H39.6176V193.085C39.6176 193.475 39.6206 193.814 39.6266 194.102C39.6386 194.39 39.7016 194.633 39.8156 194.831C40.0316 195.203 40.3736 195.416 40.8416 195.47C41.3156 195.518 41.8706 195.497 42.5066 195.407V197ZM35.8646 188.792V187.28H42.5066V188.792H35.8646ZM47.3009 197.27C46.5809 197.27 45.9779 197.138 45.4919 196.874C45.0059 196.604 44.6369 196.25 44.3849 195.812C44.1389 195.368 44.0159 194.882 44.0159 194.354C44.0159 193.862 44.1029 193.43 44.2769 193.058C44.4509 192.686 44.7089 192.371 45.0509 192.113C45.3929 191.849 45.8129 191.636 46.3109 191.474C46.7429 191.348 47.2319 191.237 47.7779 191.141C48.3239 191.045 48.8969 190.955 49.4969 190.871C50.1029 190.787 50.7029 190.703 51.2969 190.619L50.6129 190.997C50.6249 190.235 50.4629 189.671 50.1269 189.305C49.7969 188.933 49.2269 188.747 48.4169 188.747C47.9069 188.747 47.4389 188.867 47.0129 189.107C46.5869 189.341 46.2899 189.731 46.1219 190.277L44.3669 189.737C44.6069 188.903 45.0629 188.24 45.7349 187.748C46.4129 187.256 47.3129 187.01 48.4349 187.01C49.3049 187.01 50.0609 187.16 50.7029 187.46C51.3509 187.754 51.8249 188.222 52.1249 188.864C52.2809 189.182 52.3769 189.518 52.4129 189.872C52.4489 190.226 52.4669 190.607 52.4669 191.015V197H50.8019V194.777L51.1259 195.065C50.7239 195.809 50.2109 196.364 49.5869 196.73C48.9689 197.09 48.2069 197.27 47.3009 197.27ZM47.6339 195.731C48.1679 195.731 48.6269 195.638 49.0109 195.452C49.3949 195.26 49.7039 195.017 49.9379 194.723C50.1719 194.429 50.3249 194.123 50.3969 193.805C50.4989 193.517 50.5559 193.193 50.5679 192.833C50.5859 192.473 50.5949 192.185 50.5949 191.969L51.2069 192.194C50.6129 192.284 50.0729 192.365 49.5869 192.437C49.1009 192.509 48.6599 192.581 48.2639 192.653C47.8739 192.719 47.5259 192.8 47.2199 192.896C46.9619 192.986 46.7309 193.094 46.5269 193.22C46.3289 193.346 46.1699 193.499 46.0499 193.679C45.9359 193.859 45.8789 194.078 45.8789 194.336C45.8789 194.588 45.9419 194.822 46.0679 195.038C46.1939 195.248 46.3859 195.416 46.6439 195.542C46.9019 195.668 47.2319 195.731 47.6339 195.731ZM54.9839 197V183.77H56.8649V197H54.9839ZM63.1711 197V184.04H68.4091C68.5351 184.04 68.6911 184.046 68.8771 184.058C69.0631 184.064 69.2401 184.082 69.4081 184.112C70.1281 184.226 70.7281 184.472 71.2081 184.85C71.6941 185.228 72.0571 185.705 72.2971 186.281C72.5371 186.857 72.6571 187.493 72.6571 188.189C72.6571 189.221 72.3931 190.112 71.8651 190.862C71.3371 191.606 70.5451 192.071 69.4891 192.257L68.7241 192.347H65.0521V197H63.1711ZM70.7491 197L68.1931 191.726L70.0921 191.24L72.9001 197H70.7491ZM65.0521 190.565H68.3371C68.4571 190.565 68.5891 190.559 68.7331 190.547C68.8831 190.535 69.0241 190.514 69.1561 190.484C69.5401 190.394 69.8491 190.229 70.0831 189.989C70.3171 189.743 70.4851 189.461 70.5871 189.143C70.6891 188.825 70.7401 188.507 70.7401 188.189C70.7401 187.871 70.6891 187.556 70.5871 187.244C70.4851 186.926 70.3171 186.647 70.0831 186.407C69.8491 186.161 69.5401 185.993 69.1561 185.903C69.0241 185.867 68.8831 185.843 68.7331 185.831C68.5891 185.819 68.4571 185.813 68.3371 185.813H65.0521V190.565ZM79.1892 197.27C78.2232 197.27 77.3742 197.06 76.6422 196.64C75.9162 196.214 75.3492 195.623 74.9412 194.867C74.5392 194.105 74.3382 193.223 74.3382 192.221C74.3382 191.159 74.5362 190.238 74.9322 189.458C75.3342 188.678 75.8922 188.075 76.6062 187.649C77.3202 187.223 78.1512 187.01 79.0992 187.01C80.0892 187.01 80.9322 187.241 81.6282 187.703C82.3242 188.159 82.8432 188.81 83.1852 189.656C83.5332 190.502 83.6712 191.507 83.5992 192.671H81.7182V191.987C81.7062 190.859 81.4902 190.025 81.0702 189.485C80.6562 188.945 80.0232 188.675 79.1712 188.675C78.2292 188.675 77.5212 188.972 77.0472 189.566C76.5732 190.16 76.3362 191.018 76.3362 192.14C76.3362 193.208 76.5732 194.036 77.0472 194.624C77.5212 195.206 78.2052 195.497 79.0992 195.497C79.6872 195.497 80.1942 195.365 80.6202 195.101C81.0522 194.831 81.3882 194.447 81.6282 193.949L83.4732 194.534C83.0952 195.404 82.5222 196.079 81.7542 196.559C80.9862 197.033 80.1312 197.27 79.1892 197.27ZM75.7242 192.671V191.204H82.6632V192.671H75.7242ZM87.8948 197L84.3668 187.28H86.2658L88.8488 194.642L91.4318 187.28H93.3308L89.8028 197H87.8948ZM98.9118 197.27C97.9458 197.27 97.0968 197.06 96.3648 196.64C95.6388 196.214 95.0718 195.623 94.6638 194.867C94.2618 194.105 94.0608 193.223 94.0608 192.221C94.0608 191.159 94.2588 190.238 94.6548 189.458C95.0568 188.678 95.6148 188.075 96.3288 187.649C97.0428 187.223 97.8738 187.01 98.8218 187.01C99.8118 187.01 100.655 187.241 101.351 187.703C102.047 188.159 102.566 188.81 102.908 189.656C103.256 190.502 103.394 191.507 103.322 192.671H101.441V191.987C101.429 190.859 101.213 190.025 100.793 189.485C100.379 188.945 99.7458 188.675 98.8938 188.675C97.9518 188.675 97.2438 188.972 96.7698 189.566C96.2958 190.16 96.0588 191.018 96.0588 192.14C96.0588 193.208 96.2958 194.036 96.7698 194.624C97.2438 195.206 97.9278 195.497 98.8218 195.497C99.4098 195.497 99.9168 195.365 100.343 195.101C100.775 194.831 101.111 194.447 101.351 193.949L103.196 194.534C102.818 195.404 102.245 196.079 101.477 196.559C100.709 197.033 99.8538 197.27 98.9118 197.27ZM95.4468 192.671V191.204H102.386V192.671H95.4468ZM111.899 197V192.221C111.899 191.843 111.866 191.456 111.8 191.06C111.74 190.658 111.62 190.286 111.44 189.944C111.266 189.602 111.017 189.326 110.693 189.116C110.375 188.906 109.958 188.801 109.442 188.801C109.106 188.801 108.788 188.858 108.488 188.972C108.188 189.08 107.924 189.257 107.696 189.503C107.474 189.749 107.297 190.073 107.165 190.475C107.039 190.877 106.976 191.366 106.976 191.942L105.806 191.501C105.806 190.619 105.971 189.842 106.301 189.17C106.631 188.492 107.105 187.964 107.723 187.586C108.341 187.208 109.088 187.019 109.964 187.019C110.636 187.019 111.2 187.127 111.656 187.343C112.112 187.559 112.481 187.844 112.763 188.198C113.051 188.546 113.27 188.927 113.42 189.341C113.57 189.755 113.672 190.16 113.726 190.556C113.78 190.952 113.807 191.3 113.807 191.6V197H111.899ZM105.068 197V187.28H106.751V190.088H106.976V197H105.068ZM119.815 197.261C119.143 197.261 118.579 197.153 118.123 196.937C117.667 196.721 117.295 196.439 117.007 196.091C116.725 195.737 116.509 195.353 116.359 194.939C116.209 194.525 116.107 194.12 116.053 193.724C115.999 193.328 115.972 192.98 115.972 192.68V187.28H117.88V192.059C117.88 192.437 117.91 192.827 117.97 193.229C118.036 193.625 118.156 193.994 118.33 194.336C118.51 194.678 118.759 194.954 119.077 195.164C119.401 195.374 119.821 195.479 120.337 195.479C120.673 195.479 120.991 195.425 121.291 195.317C121.591 195.203 121.852 195.023 122.074 194.777C122.302 194.531 122.479 194.207 122.605 193.805C122.737 193.403 122.803 192.914 122.803 192.338L123.973 192.779C123.973 193.661 123.808 194.441 123.478 195.119C123.148 195.791 122.674 196.316 122.056 196.694C121.438 197.072 120.691 197.261 119.815 197.261ZM123.028 197V194.192H122.803V187.28H124.702V197H123.028ZM131.537 197.27C130.571 197.27 129.722 197.06 128.99 196.64C128.264 196.214 127.697 195.623 127.289 194.867C126.887 194.105 126.686 193.223 126.686 192.221C126.686 191.159 126.884 190.238 127.28 189.458C127.682 188.678 128.24 188.075 128.954 187.649C129.668 187.223 130.499 187.01 131.447 187.01C132.437 187.01 133.28 187.241 133.976 187.703C134.672 188.159 135.191 188.81 135.533 189.656C135.881 190.502 136.019 191.507 135.947 192.671H134.066V191.987C134.054 190.859 133.838 190.025 133.418 189.485C133.004 188.945 132.371 188.675 131.519 188.675C130.577 188.675 129.869 188.972 129.395 189.566C128.921 190.16 128.684 191.018 128.684 192.14C128.684 193.208 128.921 194.036 129.395 194.624C129.869 195.206 130.553 195.497 131.447 195.497C132.035 195.497 132.542 195.365 132.968 195.101C133.4 194.831 133.736 194.447 133.976 193.949L135.821 194.534C135.443 195.404 134.87 196.079 134.102 196.559C133.334 197.033 132.479 197.27 131.537 197.27ZM128.072 192.671V191.204H135.011V192.671H128.072Z" fill="#464255"/>
<defs>
<filter id="filter0_d_1_683" x="0.307716" y="17.3077" width="152.286" height="152.286" filterUnits="userSpaceOnUse" color-interpolation-filters="sRGB">
<feFlood flood-opacity="0" result="BackgroundImageFix"/>
<feColorMatrix in="SourceAlpha" type="matrix" values="0 0 0 0 0 0 0 0 0 0 0 0 0 0 0 0 0 0 127 0" result="hardAlpha"/>
<feOffset dy="17"/>
<feGaussianBlur stdDeviation="17.5"/>
<feColorMatrix type="matrix" values="0 0 0 0 0 0 0 0 0 0 0 0 0 0 0 0 0 0 0.12 0"/>
<feBlend mode="normal" in2="BackgroundImageFix" result="effect1_dropShadow_1_683"/>
<feBlend mode="normal" in="SourceGraphic" in2="effect1_dropShadow_1_683" result="shape"/>
</filter>
</defs>
</svg>
