<svg width="153" height="203" viewBox="0 0 153 203" fill="none" xmlns="http://www.w3.org/2000/svg">
<path d="M153 76.5C153 118.75 118.75 153 76.5 153C34.2502 153 0 118.75 0 76.5C0 34.2502 34.2502 0 76.5 0C118.75 0 153 34.2502 153 76.5ZM61.2 76.5C61.2 84.95 68.05 91.8 76.5 91.8C84.95 91.8 91.8 84.95 91.8 76.5C91.8 68.05 84.95 61.2 76.5 61.2C68.05 61.2 61.2 68.05 61.2 76.5Z" fill="#FF5B5B" fill-opacity="0.15"/>
<path d="M76.5 1.99999C76.5 0.895422 77.3958 -0.00273731 78.5 0.0261285C94.2142 0.436928 109.439 5.68054 122.088 15.0675C135.274 24.8522 144.961 38.6196 149.718 54.3346C154.476 70.0496 154.051 86.8783 148.506 102.333C142.962 117.788 132.592 131.049 118.929 140.155C105.267 149.262 89.0368 153.731 72.6384 152.902C56.24 152.074 40.5433 145.991 27.8687 135.553C15.1941 125.115 6.21402 110.876 2.25596 94.9412C-1.5412 79.6538 -0.523067 63.5836 5.1441 48.9212C5.54232 47.8909 6.71603 47.4096 7.73557 47.8346L60.5319 69.8435C61.5514 70.2685 62.0195 71.4378 61.731 72.5041C61.0539 75.0064 61.021 77.6512 61.6512 80.1882C62.4428 83.3753 64.2388 86.223 66.7737 88.3106C69.3086 90.3981 72.448 91.6147 75.7276 91.7805C79.0073 91.9463 82.2533 91.0524 84.9858 89.2311C87.7183 87.4097 89.7923 84.7576 90.9012 81.6666C92.0101 78.5757 92.0951 75.2099 91.1437 72.0669C90.1922 68.9239 88.2547 66.1704 85.6176 64.2135C83.5184 62.6557 81.0645 61.6684 78.4943 61.3305C77.3992 61.1865 76.5 60.3046 76.5 59.2V1.99999Z" fill="#FF5B5B"/>
<g filter="url(#filter0_d_1_671)">
<circle cx="76.4506" cy="76.4505" r="41.1429" fill="white"/>
</g>
<path d="M64.8561 85.2952C63.9161 85.2952 63.0828 85.1085 62.3561 84.7352C61.6361 84.3552 61.0695 83.8285 60.6561 83.1552C60.2495 82.4818 60.0461 81.7018 60.0461 80.8152C60.0461 79.9885 60.2395 79.2318 60.6261 78.5452C61.0128 77.8585 61.5895 77.3185 62.3561 76.9252L62.3161 77.6452C61.7028 77.2652 61.2295 76.7918 60.8961 76.2252C60.5695 75.6518 60.4061 75.0118 60.4061 74.3052C60.4061 73.4852 60.5961 72.7752 60.9761 72.1752C61.3561 71.5752 61.8795 71.1118 62.5461 70.7852C63.2195 70.4585 63.9895 70.2952 64.8561 70.2952C65.7228 70.2952 66.4895 70.4585 67.1561 70.7852C67.8228 71.1118 68.3461 71.5752 68.7261 72.1752C69.1061 72.7752 69.2961 73.4852 69.2961 74.3052C69.2961 75.0118 69.1395 75.6485 68.8261 76.2152C68.5128 76.7818 68.0328 77.2585 67.3861 77.6452L67.3561 76.9452C68.1161 77.3185 68.6928 77.8518 69.0861 78.5452C69.4795 79.2318 69.6761 79.9885 69.6761 80.8152C69.6761 81.7018 69.4695 82.4818 69.0561 83.1552C68.6428 83.8285 68.0728 84.3552 67.3461 84.7352C66.6195 85.1085 65.7895 85.2952 64.8561 85.2952ZM64.8561 83.3052C65.6295 83.3052 66.2561 83.0952 66.7361 82.6752C67.2161 82.2485 67.4561 81.6285 67.4561 80.8152C67.4561 80.0018 67.2161 79.3818 66.7361 78.9552C66.2628 78.5218 65.6361 78.3052 64.8561 78.3052C64.0761 78.3052 63.4461 78.5218 62.9661 78.9552C62.4928 79.3818 62.2561 80.0018 62.2561 80.8152C62.2561 81.6285 62.4961 82.2485 62.9761 82.6752C63.4561 83.0952 64.0828 83.3052 64.8561 83.3052ZM64.8561 76.3052C65.5161 76.3052 66.0495 76.1418 66.4561 75.8152C66.8695 75.4818 67.0761 74.9785 67.0761 74.3052C67.0761 73.6318 66.8695 73.1285 66.4561 72.7952C66.0495 72.4552 65.5161 72.2852 64.8561 72.2852C64.1961 72.2852 63.6595 72.4552 63.2461 72.7952C62.8328 73.1285 62.6261 73.6318 62.6261 74.3052C62.6261 74.9785 62.8328 75.4818 63.2461 75.8152C63.6595 76.1418 64.1961 76.3052 64.8561 76.3052ZM74.7874 84.9952V72.8952L72.0774 74.5452V72.2152L74.7874 70.5952H76.9174V84.9952H74.7874ZM82.5149 84.9952L81.1149 83.5952L94.1249 70.5952L95.5249 72.0052L82.5149 84.9952ZM92.5249 85.2952C91.8649 85.2952 91.2615 85.1352 90.7149 84.8152C90.1749 84.4885 89.7415 84.0552 89.4149 83.5152C89.0882 82.9685 88.9249 82.3618 88.9249 81.6952C88.9249 81.0418 89.0915 80.4418 89.4249 79.8952C89.7582 79.3485 90.1982 78.9118 90.7449 78.5852C91.2915 78.2585 91.8849 78.0952 92.5249 78.0952C93.1849 78.0952 93.7882 78.2585 94.3349 78.5852C94.8815 78.9052 95.3149 79.3385 95.6349 79.8852C95.9615 80.4252 96.1249 81.0285 96.1249 81.6952C96.1249 82.3618 95.9615 82.9685 95.6349 83.5152C95.3149 84.0552 94.8815 84.4885 94.3349 84.8152C93.7882 85.1352 93.1849 85.2952 92.5249 85.2952ZM92.5249 83.4852C92.8515 83.4852 93.1482 83.4052 93.4149 83.2452C93.6882 83.0785 93.9049 82.8585 94.0649 82.5852C94.2315 82.3118 94.3149 82.0152 94.3149 81.6952C94.3149 81.3752 94.2315 81.0785 94.0649 80.8052C93.9049 80.5318 93.6882 80.3152 93.4149 80.1552C93.1482 79.9885 92.8515 79.9052 92.5249 79.9052C92.2049 79.9052 91.9082 79.9885 91.6349 80.1552C91.3682 80.3152 91.1515 80.5318 90.9849 80.8052C90.8249 81.0785 90.7449 81.3752 90.7449 81.6952C90.7449 82.0152 90.8249 82.3118 90.9849 82.5852C91.1515 82.8585 91.3682 83.0785 91.6349 83.2452C91.9082 83.4052 92.2049 83.4852 92.5249 83.4852ZM84.1149 77.4952C83.4549 77.4952 82.8515 77.3352 82.3049 77.0152C81.7582 76.6885 81.3215 76.2552 80.9949 75.7152C80.6749 75.1685 80.5149 74.5618 80.5149 73.8952C80.5149 73.2418 80.6815 72.6418 81.0149 72.0952C81.3482 71.5485 81.7882 71.1118 82.3349 70.7852C82.8815 70.4585 83.4749 70.2952 84.1149 70.2952C84.7749 70.2952 85.3749 70.4585 85.9149 70.7852C86.4615 71.1052 86.8982 71.5385 87.2249 72.0852C87.5515 72.6252 87.7149 73.2285 87.7149 73.8952C87.7149 74.5618 87.5515 75.1685 87.2249 75.7152C86.8982 76.2552 86.4615 76.6885 85.9149 77.0152C85.3749 77.3352 84.7749 77.4952 84.1149 77.4952ZM84.1149 75.6852C84.4349 75.6852 84.7315 75.6052 85.0049 75.4452C85.2782 75.2785 85.4949 75.0585 85.6549 74.7852C85.8215 74.5118 85.9049 74.2152 85.9049 73.8952C85.9049 73.5752 85.8215 73.2785 85.6549 73.0052C85.4949 72.7318 85.2782 72.5152 85.0049 72.3552C84.7315 72.1885 84.4349 72.1052 84.1149 72.1052C83.7949 72.1052 83.4982 72.1885 83.2249 72.3552C82.9582 72.5152 82.7415 72.7318 82.5749 73.0052C82.4082 73.2785 82.3249 73.5752 82.3249 73.8952C82.3249 74.2152 82.4082 74.5118 82.5749 74.7852C82.7415 75.0585 82.9582 75.2785 83.2249 75.4452C83.4915 75.6052 83.7882 75.6852 84.1149 75.6852Z" fill="black"/>
<path d="M32.8015 197V185.813H28.4905V184.04H38.9935V185.813H34.6825V197H32.8015ZM43.2134 197.27C42.2414 197.27 41.3984 197.051 40.6844 196.613C39.9704 196.175 39.4184 195.572 39.0284 194.804C38.6444 194.03 38.4524 193.139 38.4524 192.131C38.4524 191.117 38.6504 190.226 39.0464 189.458C39.4424 188.684 39.9974 188.084 40.7114 187.658C41.4254 187.226 42.2594 187.01 43.2134 187.01C44.1854 187.01 45.0284 187.229 45.7424 187.667C46.4564 188.105 47.0084 188.708 47.3984 189.476C47.7884 190.244 47.9834 191.129 47.9834 192.131C47.9834 193.145 47.7854 194.039 47.3894 194.813C46.9994 195.581 46.4474 196.184 45.7334 196.622C45.0194 197.054 44.1794 197.27 43.2134 197.27ZM43.2134 195.497C44.1434 195.497 44.8364 195.185 45.2924 194.561C45.7544 193.931 45.9854 193.121 45.9854 192.131C45.9854 191.117 45.7514 190.307 45.2834 189.701C44.8214 189.089 44.1314 188.783 43.2134 188.783C42.5834 188.783 42.0644 188.927 41.6564 189.215C41.2484 189.497 40.9454 189.89 40.7474 190.394C40.5494 190.892 40.4504 191.471 40.4504 192.131C40.4504 193.151 40.6844 193.967 41.1524 194.579C41.6204 195.191 42.3074 195.497 43.2134 195.497ZM55.5232 197C54.9112 197.12 54.3112 197.171 53.7232 197.153C53.1352 197.135 52.6102 197.021 52.1482 196.811C51.6862 196.601 51.3382 196.271 51.1042 195.821C50.8942 195.419 50.7802 195.011 50.7622 194.597C50.7502 194.177 50.7442 193.703 50.7442 193.175V184.58H52.6342V193.085C52.6342 193.475 52.6372 193.814 52.6432 194.102C52.6552 194.39 52.7182 194.633 52.8322 194.831C53.0482 195.203 53.3902 195.416 53.8582 195.47C54.3322 195.518 54.8872 195.497 55.5232 195.407V197ZM48.8812 188.792V187.28H55.5232V188.792H48.8812ZM60.3175 197.27C59.5975 197.27 58.9945 197.138 58.5085 196.874C58.0225 196.604 57.6535 196.25 57.4015 195.812C57.1555 195.368 57.0325 194.882 57.0325 194.354C57.0325 193.862 57.1195 193.43 57.2935 193.058C57.4675 192.686 57.7255 192.371 58.0675 192.113C58.4095 191.849 58.8295 191.636 59.3275 191.474C59.7595 191.348 60.2485 191.237 60.7945 191.141C61.3405 191.045 61.9135 190.955 62.5135 190.871C63.1195 190.787 63.7195 190.703 64.3135 190.619L63.6295 190.997C63.6415 190.235 63.4795 189.671 63.1435 189.305C62.8135 188.933 62.2435 188.747 61.4335 188.747C60.9235 188.747 60.4555 188.867 60.0295 189.107C59.6035 189.341 59.3065 189.731 59.1385 190.277L57.3835 189.737C57.6235 188.903 58.0795 188.24 58.7515 187.748C59.4295 187.256 60.3295 187.01 61.4515 187.01C62.3215 187.01 63.0775 187.16 63.7195 187.46C64.3675 187.754 64.8415 188.222 65.1415 188.864C65.2975 189.182 65.3935 189.518 65.4295 189.872C65.4655 190.226 65.4835 190.607 65.4835 191.015V197H63.8185V194.777L64.1425 195.065C63.7405 195.809 63.2275 196.364 62.6035 196.73C61.9855 197.09 61.2235 197.27 60.3175 197.27ZM60.6505 195.731C61.1845 195.731 61.6435 195.638 62.0275 195.452C62.4115 195.26 62.7205 195.017 62.9545 194.723C63.1885 194.429 63.3415 194.123 63.4135 193.805C63.5155 193.517 63.5725 193.193 63.5845 192.833C63.6025 192.473 63.6115 192.185 63.6115 191.969L64.2235 192.194C63.6295 192.284 63.0895 192.365 62.6035 192.437C62.1175 192.509 61.6765 192.581 61.2805 192.653C60.8905 192.719 60.5425 192.8 60.2365 192.896C59.9785 192.986 59.7475 193.094 59.5435 193.22C59.3455 193.346 59.1865 193.499 59.0665 193.679C58.9525 193.859 58.8955 194.078 58.8955 194.336C58.8955 194.588 58.9585 194.822 59.0845 195.038C59.2105 195.248 59.4025 195.416 59.6605 195.542C59.9185 195.668 60.2485 195.731 60.6505 195.731ZM68.0005 197V183.77H69.8815V197H68.0005ZM81.5967 197.27C80.3007 197.27 79.1967 196.988 78.2847 196.424C77.3727 195.854 76.6737 195.062 76.1877 194.048C75.7077 193.034 75.4677 191.858 75.4677 190.52C75.4677 189.182 75.7077 188.006 76.1877 186.992C76.6737 185.978 77.3727 185.189 78.2847 184.625C79.1967 184.055 80.3007 183.77 81.5967 183.77C82.8867 183.77 83.9877 184.055 84.8997 184.625C85.8177 185.189 86.5167 185.978 86.9967 186.992C87.4767 188.006 87.7167 189.182 87.7167 190.52C87.7167 191.858 87.4767 193.034 86.9967 194.048C86.5167 195.062 85.8177 195.854 84.8997 196.424C83.9877 196.988 82.8867 197.27 81.5967 197.27ZM81.5967 195.479C82.5147 195.491 83.2767 195.29 83.8827 194.876C84.4947 194.456 84.9537 193.874 85.2597 193.13C85.5657 192.38 85.7187 191.51 85.7187 190.52C85.7187 189.53 85.5657 188.666 85.2597 187.928C84.9537 187.184 84.4947 186.605 83.8827 186.191C83.2767 185.777 82.5147 185.567 81.5967 185.561C80.6787 185.549 79.9137 185.75 79.3017 186.164C78.6957 186.578 78.2397 187.16 77.9337 187.91C77.6277 188.66 77.4717 189.53 77.4657 190.52C77.4597 191.51 77.6097 192.377 77.9157 193.121C78.2217 193.859 78.6807 194.435 79.2927 194.849C79.9107 195.263 80.6787 195.473 81.5967 195.479ZM89.512 197V187.28H91.186V189.638L90.952 189.332C91.072 189.02 91.228 188.735 91.42 188.477C91.612 188.213 91.834 187.997 92.086 187.829C92.332 187.649 92.605 187.511 92.905 187.415C93.211 187.313 93.523 187.253 93.841 187.235C94.159 187.211 94.465 187.226 94.759 187.28V189.044C94.441 188.96 94.087 188.936 93.697 188.972C93.313 189.008 92.959 189.131 92.635 189.341C92.329 189.539 92.086 189.779 91.906 190.061C91.732 190.343 91.606 190.658 91.528 191.006C91.45 191.348 91.411 191.711 91.411 192.095V197H89.512ZM100.158 197.27C99.2521 197.27 98.4691 197.045 97.8091 196.595C97.1551 196.145 96.6481 195.533 96.2881 194.759C95.9341 193.979 95.7571 193.103 95.7571 192.131C95.7571 191.153 95.9371 190.28 96.2971 189.512C96.6571 188.738 97.1671 188.129 97.8271 187.685C98.4931 187.235 99.2821 187.01 100.194 187.01C101.112 187.01 101.883 187.235 102.507 187.685C103.137 188.129 103.611 188.738 103.929 189.512C104.253 190.286 104.415 191.159 104.415 192.131C104.415 193.103 104.253 193.976 103.929 194.75C103.605 195.524 103.128 196.139 102.498 196.595C101.868 197.045 101.088 197.27 100.158 197.27ZM100.419 195.569C101.037 195.569 101.541 195.422 101.931 195.128C102.321 194.834 102.606 194.429 102.786 193.913C102.966 193.397 103.056 192.803 103.056 192.131C103.056 191.459 102.963 190.865 102.777 190.349C102.597 189.833 102.315 189.431 101.931 189.143C101.553 188.855 101.07 188.711 100.482 188.711C99.8581 188.711 99.3451 188.864 98.9431 189.17C98.5411 189.476 98.2411 189.887 98.0431 190.403C97.8511 190.919 97.7551 191.495 97.7551 192.131C97.7551 192.773 97.8511 193.355 98.0431 193.877C98.2411 194.393 98.5351 194.804 98.9251 195.11C99.3211 195.416 99.8191 195.569 100.419 195.569ZM103.056 197V190.007H102.84V184.04H104.73V197H103.056ZM111.559 197.27C110.593 197.27 109.744 197.06 109.012 196.64C108.286 196.214 107.719 195.623 107.311 194.867C106.909 194.105 106.708 193.223 106.708 192.221C106.708 191.159 106.906 190.238 107.302 189.458C107.704 188.678 108.262 188.075 108.976 187.649C109.69 187.223 110.521 187.01 111.469 187.01C112.459 187.01 113.302 187.241 113.998 187.703C114.694 188.159 115.213 188.81 115.555 189.656C115.903 190.502 116.041 191.507 115.969 192.671H114.088V191.987C114.076 190.859 113.86 190.025 113.44 189.485C113.026 188.945 112.393 188.675 111.541 188.675C110.599 188.675 109.891 188.972 109.417 189.566C108.943 190.16 108.706 191.018 108.706 192.14C108.706 193.208 108.943 194.036 109.417 194.624C109.891 195.206 110.575 195.497 111.469 195.497C112.057 195.497 112.564 195.365 112.99 195.101C113.422 194.831 113.758 194.447 113.998 193.949L115.843 194.534C115.465 195.404 114.892 196.079 114.124 196.559C113.356 197.033 112.501 197.27 111.559 197.27ZM108.094 192.671V191.204H115.033V192.671H108.094ZM117.989 197V187.28H119.663V189.638L119.429 189.332C119.549 189.02 119.705 188.735 119.897 188.477C120.089 188.213 120.311 187.997 120.563 187.829C120.809 187.649 121.082 187.511 121.382 187.415C121.688 187.313 122 187.253 122.318 187.235C122.636 187.211 122.942 187.226 123.236 187.28V189.044C122.918 188.96 122.564 188.936 122.174 188.972C121.79 189.008 121.436 189.131 121.112 189.341C120.806 189.539 120.563 189.779 120.383 190.061C120.209 190.343 120.083 190.658 120.005 191.006C119.927 191.348 119.888 191.711 119.888 192.095V197H117.989Z" fill="#464255"/>
<defs>
<filter id="filter0_d_1_671" x="0.307709" y="17.3077" width="152.286" height="152.286" filterUnits="userSpaceOnUse" color-interpolation-filters="sRGB">
<feFlood flood-opacity="0" result="BackgroundImageFix"/>
<feColorMatrix in="SourceAlpha" type="matrix" values="0 0 0 0 0 0 0 0 0 0 0 0 0 0 0 0 0 0 127 0" result="hardAlpha"/>
<feOffset dy="17"/>
<feGaussianBlur stdDeviation="17.5"/>
<feColorMatrix type="matrix" values="0 0 0 0 0 0 0 0 0 0 0 0 0 0 0 0 0 0 0.12 0"/>
<feBlend mode="normal" in2="BackgroundImageFix" result="effect1_dropShadow_1_671"/>
<feBlend mode="normal" in="SourceGraphic" in2="effect1_dropShadow_1_671" result="shape"/>
</filter>
</defs>
</svg>
